<?xml version="1.0" encoding="utf-8"?>
<!-- Generator: Adobe Illustrator 22.1.0, SVG Export Plug-In . SVG Version: 6.00 Build 0)  -->
<svg  version="1.1" id="Layer_1" xmlns="http://www.w3.org/2000/svg" xmlns:xlink="http://www.w3.org/1999/xlink" x="0px" y="0px"
	 viewBox="0 0 96 120" style="enable-background:new 0 0 96 120;" xml:space="preserve">
<style type="text/css">
	.st0{fill:#EBA023;stroke:#231F20;stroke-width:0.25;stroke-linecap:round;stroke-miterlimit:10;}
	.st1{fill:#231F20;}
	.st2{fill:#231F20;stroke:#231F20;stroke-miterlimit:10;}
	.st3{fill:#EBA023;stroke:#EBA023;stroke-width:0.2;stroke-linecap:round;stroke-miterlimit:10;}
</style>
<g>
	<ellipse class="st0" cx="47.8" cy="53.2" rx="41.2" ry="45.9"/>
	<g>
		<path class="st1" d="M66,15.7c-8.8,0-11.7,4.7-12.5,9.6c-1.8-1.1-4-1.7-6.5-1.7c-2.3,0-4.4,0.6-6.1,1.5c-1.1-6.1-5.7-9.4-13.2-9.4
			c-1,0-1.7,0.8-1.7,1.7s0.8,1.7,1.7,1.7c6.6,0,9.8,2.8,10,8.6c-2.3,2.8-3.7,6.9-3.8,12.1c4-3.2,8.3-5.4,12.4-6.1l0.1,0l0.3,0
			c0.2,0,0.3,0,0.5,0c-0.1,0,0,0,0.2,0l0.4,0c4.1,0.7,8.3,2.9,12.3,5.9c-0.1-4.9-1.3-8.8-3.4-11.6c0-6.3,2.9-9.1,9.3-9.1
			c1,0,1.7-0.8,1.7-1.7C67.8,16.5,67,15.7,66,15.7z"/>
		<g>
			<path class="st2" d="M51.1,62.1c-0.4-1.1-0.8-2.2-1.2-3.4h-4.3c-0.4,1.1-0.8,2.3-1.2,3.4C44.3,62.1,51.1,62.1,51.1,62.1z"/>
			<path class="st2" d="M46.6,55.4h2.2c-0.4-1.4-0.8-2.9-1.1-4.3C47.4,52.5,47,54,46.6,55.4z"/>
			<path class="st2" d="M52.6,65.4h-9.7c-0.6,1.2-1.2,2.3-1.8,3.4h13.3C53.7,67.8,53.1,66.6,52.6,65.4z"/>
			<path class="st2" d="M33.2,82.2h29.1c0.6-1.1,1.1-2.2,1.6-3.4H31.6C32.1,80.1,32.6,81.2,33.2,82.2z"/>
			<path class="st2" d="M57.8,73.4c-0.4-0.4-0.7-0.8-1.1-1.3H38.7c-0.4,0.4-0.7,0.9-1.1,1.3c-0.8,0.8-1.6,1.5-2.4,2.1h24.8
				C59.3,74.9,58.5,74.3,57.8,73.4z"/>
			<path class="st2" d="M47.8,92.3c4.7,0,9-2.4,12.3-6.7H35.5C38.8,89.8,43.1,92.3,47.8,92.3z"/>
			<path class="st2" d="M35.1,71.2c-2,2.1-4.1,3.2-6.1,3.2l0,0c-1.1,0-2.3-0.3-3.5-0.9c-3.4-1.8-4.7-5.1-3.8-10
				c2-11.1,14.4-25.3,24.3-28.3C46.4,46.2,41.8,64,35.1,71.2z"/>
			<path class="st2" d="M70,73.5c-3.4,1.8-6.5,1-9.6-2.3c-6.8-7.2-11.3-25-10.9-36c9.9,3,22.3,17.2,24.3,28.3
				C74.6,68.3,73.3,71.7,70,73.5z"/>
		</g>
		<ellipse transform="matrix(0.5 -0.866 0.866 0.5 0.7392 41.4359)" class="st3" cx="36.3" cy="20.1" rx="0.7" ry="2.3"/>
		<ellipse transform="matrix(0.6079 -0.794 0.794 0.6079 -3.5201 55.4274)" class="st3" cx="54.4" cy="31.3" rx="0.7" ry="2.6"/>
		<ellipse transform="matrix(0.4062 -0.9138 0.9138 0.4062 -4.9127 54.9956)" class="st3" cx="39.9" cy="31.3" rx="2.6" ry="0.7"/>
		<ellipse transform="matrix(0.5 -0.866 0.866 0.5 10.8153 59.9983)" class="st3" cx="57.4" cy="20.6" rx="1.9" ry="0.6"/>
		<ellipse class="st3" cx="46.9" cy="29.7" rx="0.7" ry="2.6"/>
	</g>
</g>
</svg>
